<svg width="72" height="109" viewBox="0 0 72 109" fill="none" xmlns="http://www.w3.org/2000/svg">
<path d="M50.7052 108.966V86.7669C50.7052 82.892 50.8447 79.2037 51.1237 75.7022C51.3562 72.2007 51.5422 69.7264 51.6816 68.2791H50.5657C48.8918 70.9869 46.9157 73.1812 44.6373 74.8619C42.3125 76.5426 39.7551 77.7798 36.9653 78.5734C34.1754 79.3671 31.1764 79.764 27.9681 79.764C22.3419 79.764 17.4365 78.7602 13.2517 76.7527C9.06696 74.7918 5.81215 71.6872 3.48729 67.4387C1.16243 63.2369 0 57.7746 0 51.0517V0H21.2725V45.7295C21.2725 51.3319 22.2954 55.557 24.3413 58.4049C26.3872 61.2527 29.549 62.6767 33.8267 62.6767C38.1045 62.6767 41.4755 61.6729 43.9399 59.6654C46.4042 57.7046 48.1479 54.7867 49.1708 50.9117C50.1937 47.0834 50.7052 42.3914 50.7052 36.8357V0H71.9777V108.966H50.7052Z" fill="#3A9AD9"/>
<path d="M21.2948 0.0336143V22.2331C21.2948 26.108 21.5515 29.9985 21.2725 33.5C21.04 37.0015 21.5738 39.2737 21.4343 40.7209C23.1082 38.0131 25.0843 35.8188 27.3627 34.1381C29.6875 32.4574 32.2449 31.2202 35.0347 30.4266C37.8246 29.6329 40.8236 29.236 44.0319 29.236C49.6581 29.236 54.5635 30.2398 58.7483 32.2473C62.933 34.2082 66.1878 37.3128 68.5127 41.5613C70.8376 45.7631 72 51.2254 72 57.9483V109H50.7275V63.2705C50.7275 57.6681 49.7046 53.443 47.6587 50.5951C45.6128 47.7473 42.451 46.3233 38.1733 46.3233C33.8955 46.3233 30.5245 47.3271 28.0601 49.3346C25.5958 51.2954 23.8521 54.2133 22.8292 58.0883C21.8063 61.9166 21.2948 66.6086 21.2948 72.1643V109H0.0223187V0.0336143H21.2948Z" fill="#1A4A8B"/>
</svg>
