<svg width="123" height="157" viewBox="0 0 123 157" fill="none" xmlns="http://www.w3.org/2000/svg">
<path d="M120.904 156.503L110.706 150.764C110.641 150.731 107.024 148.641 103.571 144.461C99.368 139.353 97.2829 133.448 97.3806 126.979C104.32 124.524 110.51 119.913 114.974 113.908C119.894 107.241 122.5 99.312 122.5 90.9523V43.0827C122.5 22.0506 105.689 4.93292 85.0327 4.93292H38.052C17.3961 4.93292 0.584663 22.0506 0.584663 43.0827V90.9191C0.584663 111.951 17.3961 129.069 38.052 129.069H71.4142C72.2612 131.291 74.1835 135.372 78.0279 139.718C83.0779 145.423 92.6239 152.722 109.338 154.944L120.904 156.503ZM85.0327 9.41137C103.278 9.41137 118.102 24.5054 118.102 43.0827V90.9191C118.102 105.648 108.425 118.918 94.5787 123.164L93.1126 123.628L93.0149 125.188C92.4936 133.415 95.0023 141.144 100.28 147.48C100.671 147.945 101.03 148.376 101.421 148.774C79.5592 142.571 75.1609 126.448 75.0957 126.249L74.6722 124.557H38.052C19.807 124.557 4.98299 109.463 4.98299 90.8859V43.0827C4.98299 24.5054 19.807 9.41137 38.052 9.41137H85.0327Z" fill="white"/>
<path d="M51.0022 87.6722V85.1332C51.0022 82.529 51.2463 80.2992 51.7346 78.4437C52.2229 76.5557 53.0693 74.7979 54.2737 73.1703C55.5107 71.5427 57.2196 69.8174 59.4006 67.9945C61.9397 65.8786 63.9417 64.0883 65.4065 62.6234C66.9039 61.126 67.9781 59.6286 68.6292 58.1312C69.2802 56.6338 69.6057 54.8272 69.6057 52.7113C69.6057 49.3259 68.5152 46.738 66.3342 44.9476C64.1532 43.1247 61.0771 42.2133 57.1057 42.2133C53.8831 42.2133 51.0185 42.6202 48.512 43.434C46.0055 44.2478 43.5966 45.2243 41.2854 46.3636L38.4534 39.8207C41.1226 38.4209 44.0198 37.2816 47.1448 36.4027C50.2698 35.5238 53.7528 35.0844 57.594 35.0844C63.8765 35.0844 68.7431 36.6469 72.1936 39.7719C75.6441 42.8643 77.3694 47.1286 77.3694 52.5648C77.3694 55.5922 76.8811 58.1801 75.9045 60.3285C74.928 62.4444 73.5445 64.3975 71.7542 66.1879C69.9638 67.9457 67.8479 69.8174 65.4065 71.8031C63.2581 73.626 61.6142 75.2373 60.4749 76.6371C59.3355 78.0043 58.5543 79.4203 58.1311 80.8851C57.7079 82.3174 57.4963 84.0427 57.4963 86.0609V87.6722H51.0022ZM48.8538 102.418C48.8538 100.14 49.3909 98.5284 50.4651 97.5844C51.5393 96.6078 52.9228 96.1195 54.6155 96.1195C56.2105 96.1195 57.5614 96.6078 58.6682 97.5844C59.8075 98.5284 60.3772 100.14 60.3772 102.418C60.3772 104.664 59.8075 106.308 58.6682 107.35C57.5614 108.359 56.2105 108.864 54.6155 108.864C52.9228 108.864 51.5393 108.359 50.4651 107.35C49.3909 106.308 48.8538 104.664 48.8538 102.418Z" fill="white"/>
</svg>
