<svg width="79" height="115" viewBox="0 0 79 115" fill="none" xmlns="http://www.w3.org/2000/svg">
<path fill-rule="evenodd" clip-rule="evenodd" d="M78.5 39.4133C78.5 28.582 74.1389 18.7761 67.0874 11.6782C60.0365 4.58063 50.2956 0.190125 39.5369 0.190125C28.7779 0.190125 19.037 4.58063 11.9861 11.6782C4.93495 18.7761 0.573822 28.582 0.573822 39.4133C0.573822 53.5913 18.3096 82.5774 30.0895 101.83C32.9331 106.478 35.426 110.552 37.1811 113.612C37.6695 114.467 38.6059 114.902 39.5211 114.787C40.0259 114.858 40.5561 114.765 41.0308 114.489C41.4485 114.245 41.7652 113.892 41.9644 113.487C43.7152 110.441 46.1788 106.415 48.984 101.83C60.764 82.5774 78.5 53.5913 78.5 39.4133Z" fill="white"/>
<path fill-rule="evenodd" clip-rule="evenodd" d="M18.0444 17.7521C23.5449 12.215 31.1439 8.79034 39.5369 8.79034C47.9302 8.79034 55.5292 12.215 61.0297 17.7521C66.5302 23.2896 69.9321 30.939 69.9321 39.3882C69.9321 47.8374 66.5302 55.4871 61.0297 61.0243C55.5292 66.5614 47.9302 69.9863 39.5369 69.9863C31.1439 69.9863 23.5449 66.5614 18.0444 61.0243C12.5436 55.4871 9.14139 47.8374 9.14139 39.3882C9.14139 30.939 12.5436 23.2896 18.0444 17.7521Z" fill="#C74F0D"/>
<path d="M35.334 20.2059H43.7398C44.4802 20.2059 45.0807 20.8099 45.0807 21.5561V33.8074H57.251C57.9922 33.8074 58.5922 34.412 58.5922 35.1573V43.6195C58.5922 44.3645 57.9922 44.9693 57.251 44.9693H45.0807V57.2207C45.0807 57.9663 44.4802 58.5708 43.7398 58.5708H35.334C34.5933 58.5708 33.9927 57.9663 33.9927 57.2207V44.9693H21.8222C21.0819 44.9693 20.4813 44.3645 20.4813 43.6195V35.1573C20.4813 34.412 21.0819 33.8074 21.8222 33.8074H33.9927V21.5561C33.9927 20.8099 34.5933 20.2059 35.334 20.2059Z" fill="white"/>
</svg>
