<svg width="130" height="121" viewBox="0 0 130 121" fill="none" xmlns="http://www.w3.org/2000/svg">
<path fill-rule="evenodd" clip-rule="evenodd" d="M64.7534 120.266C64.364 120.266 63.7805 120.037 63.3921 119.579C53.8648 108.839 39.8653 102.667 24.8942 102.667C16.9222 102.667 9.72842 104.039 3.11773 107.01C2.53427 107.239 1.75645 107.239 1.36703 106.781C0.784247 106.324 0.589539 105.638 0.589539 104.953V19.2469C0.589539 18.3326 0.97862 17.4186 1.75645 17.1902C3.89522 16.0466 6.03399 15.362 7.97839 14.9042C8.36747 14.9042 8.75588 14.6758 9.14496 14.6758V6.9056C9.14496 5.9913 9.72842 5.077 10.5059 4.84892C17.1169 2.10602 23.7273 0.734375 30.7271 0.734375C43.3653 0.734375 55.8089 5.9913 64.9478 14.9042C73.6972 5.9913 86.3355 0.734375 99.3625 0.734375C106.167 0.734375 113.167 2.10602 119.583 4.84892C120.361 5.077 120.946 5.9913 120.946 6.9056V14.6758C121.334 14.9042 121.722 14.9042 122.112 14.9042C124.056 15.5901 126.001 16.0466 128.333 17.1902C129.111 17.6467 129.5 18.3326 129.5 19.2469V104.953C129.5 105.638 129.112 106.324 128.722 106.781C128.14 107.237 127.556 107.237 126.973 107.01C120.362 104.039 113.168 102.667 105.196 102.667C83.3286 102.667 66.7344 120.266 64.7534 120.266ZM24.8935 98.0963C40.2537 98.0963 54.8813 103.79 64.9924 114.532C75.2975 103.79 89.0574 98.0963 104.613 98.0963C112.001 98.0963 118.805 99.2387 125.223 101.753V20.847C123.666 20.1612 122.306 19.7046 120.751 19.2469H120.556V93.0683C120.556 93.7545 120.167 94.4391 119.778 94.8969C119.195 95.3534 118.611 95.3534 118.029 95.1254C112.001 92.6109 105.584 91.2401 99.1681 91.2401C79.7825 91.2401 66.4524 106.324 64.9478 106.324H64.5583C63.1232 106.324 49.358 91.2401 30.3376 91.2401C23.9213 91.2401 17.6997 92.6117 11.4781 95.1254C10.8943 95.3546 10.3112 95.3546 9.72842 94.8969C9.14463 94.4391 8.95059 93.7545 8.95059 93.0683V19.2469H8.75588C7.20023 19.7046 5.83928 20.1612 4.28397 20.847V101.753C10.7003 99.2387 17.5057 98.0963 24.8935 98.0963ZM30.3376 86.669C42.5878 86.669 54.0592 91.0108 62.8087 99.0103V18.7903C54.2532 10.1047 42.3935 5.077 30.3376 5.077C24.3107 5.077 18.4779 6.21977 12.8394 8.50572V89.868C18.6723 87.8114 24.3107 86.669 30.3376 86.669ZM66.6975 18.7903V99.0103C75.2529 91.0108 86.7242 86.669 99.1681 86.669C105.001 86.669 111.028 87.8114 116.667 89.8692V8.50572C111.028 6.21977 105.001 5.077 99.1681 5.077C86.7242 5.077 74.8635 10.1047 66.6975 18.7903Z" fill="white"/>
</svg>
